<mxfile host="app.diagrams.net" modified="2025-09-05T11:51:38.754Z" agent="5.0" etag="draw.io" version="24.7.17">
  <diagram name="Complete AWS Infrastructure" id="complete-aws-infrastructure">
    <mxGraphModel dx="1800" dy="1000" grid="1" gridSize="10" guides="1" tooltips="1" connect="1" arrows="1" fold="1" page="1" pageScale="1" pageWidth="1800" pageHeight="1400" math="0" shadow="0">
      <root>
        <mxCell id="0" />
        <mxCell id="1" parent="0" />
        
        <!-- Storage Services Zone -->
        <mxCell id="storage-zone" value="Storage &amp; Database Services" style="rounded=1;whiteSpace=wrap;html=1;fillColor=#f8cecc;strokeColor=#b85450;fontSize=14;fontStyle=1;verticalAlign=top;spacingTop=10;" vertex="1" parent="1">
          <mxGeometry x="620" y="500" width="400" height="200" as="geometry" />
        </mxCell>
        
        <mxCell id="s3" value="🗄️ Amazon S3&#xa;• Screenshot Storage&#xa;• Workflow Templates&#xa;• User Configurations&#xa;• Backup &amp; Archive" style="sketch=0;points=[[0,0,0],[0.25,0,0],[0.5,0,0],[0.75,0,0],[1,0,0],[0,1,0],[0.25,1,0],[0.5,1,0],[0.75,1,0],[1,1,0]];outlineConnect=0;gradientColor=none;html=1;whiteSpace=wrap;fontSize=11;fontStyle=0;container=1;pointerEvents=0;collapsible=0;recursiveResize=0;shape=mxgraph.aws4.s3;" vertex="1" parent="1">
          <mxGeometry x="640" y="540" width="120" height="80" as="geometry" />
        </mxCell>
        
        <mxCell id="dynamodb" value="🏪 Amazon DynamoDB&#xa;• User Sessions&#xa;• Workflow State&#xa;• MCP Configurations&#xa;• Usage Analytics" style="sketch=0;points=[[0,0,0],[0.25,0,0],[0.5,0,0],[0.75,0,0],[1,0,0],[0,1,0],[0.25,1,0],[0.5,1,0],[0.75,1,0],[1,1,0]];outlineConnect=0;gradientColor=none;html=1;whiteSpace=wrap;fontSize=11;fontStyle=0;container=1;pointerEvents=0;collapsible=0;recursiveResize=0;shape=mxgraph.aws4.dynamodb;" vertex="1" parent="1">
          <mxGeometry x="780" y="540" width="120" height="80" as="geometry" />
        </mxCell>
        
        <mxCell id="elasticache" value="⚡ ElastiCache Redis&#xa;• Session Caching&#xa;• Frequent UI Patterns&#xa;• Response Caching&#xa;• Real-time State" style="sketch=0;points=[[0,0,0],[0.25,0,0],[0.5,0,0],[0.75,0,0],[1,0,0],[0,1,0],[0.25,1,0],[0.5,1,0],[0.75,1,0],[1,1,0]];outlineConnect=0;gradientColor=none;html=1;whiteSpace=wrap;fontSize=11;fontStyle=0;container=1;pointerEvents=0;collapsible=0;recursiveResize=0;shape=mxgraph.aws4.elasticache;" vertex="1" parent="1">
          <mxGeometry x="640" y="640" width="120" height="80" as="geometry" />
        </mxCell>
        
        <mxCell id="rds" value="🗃️ Amazon RDS&#xa;• User Management&#xa;• Audit Logs&#xa;• Workflow History&#xa;• Performance Metrics" style="sketch=0;points=[[0,0,0],[0.25,0,0],[0.5,0,0],[0.75,0,0],[1,0,0],[0,1,0],[0.25,1,0],[0.5,1,0],[0.75,1,0],[1,1,0]];outlineConnect=0;gradientColor=none;html=1;whiteSpace=wrap;fontSize=11;fontStyle=0;container=1;pointerEvents=0;collapsible=0;recursiveResize=0;shape=mxgraph.aws4.rds;" vertex="1" parent="1">
          <mxGeometry x="780" y="640" width="120" height="80" as="geometry" />
        </mxCell>
        
        <!-- Security Services Zone -->
        <mxCell id="security-zone" value="Security &amp; Identity Services" style="rounded=1;whiteSpace=wrap;html=1;fillColor=#e1d5e7;strokeColor=#9673a6;fontSize=14;fontStyle=1;verticalAlign=top;spacingTop=10;" vertex="1" parent="1">
          <mxGeometry x="1080" y="500" width="400" height="200" as="geometry" />
        </mxCell>
        
        <mxCell id="iam" value="🔐 AWS IAM&#xa;• Role-based Access&#xa;• MCP Permissions&#xa;• Service Authentication&#xa;• Policy Management" style="sketch=0;points=[[0,0,0],[0.25,0,0],[0.5,0,0],[0.75,0,0],[1,0,0],[0,1,0],[0.25,1,0],[0.5,1,0],[0.75,1,0],[1,1,0]];outlineConnect=0;gradientColor=none;html=1;whiteSpace=wrap;fontSize=11;fontStyle=0;container=1;pointerEvents=0;collapsible=0;recursiveResize=0;shape=mxgraph.aws4.iam;" vertex="1" parent="1">
          <mxGeometry x="1100" y="540" width="120" height="80" as="geometry" />
        </mxCell>
        
        <mxCell id="secrets-manager" value="🔑 Secrets Manager&#xa;• API Keys Storage&#xa;• Database Credentials&#xa;• Third-party Tokens&#xa;• Automatic Rotation" style="sketch=0;points=[[0,0,0],[0.25,0,0],[0.5,0,0],[0.75,0,0],[1,0,0],[0,1,0],[0.25,1,0],[0.5,1,0],[0.75,1,0],[1,1,0]];outlineConnect=0;gradientColor=none;html=1;whiteSpace=wrap;fontSize=11;fontStyle=0;container=1;pointerEvents=0;collapsible=0;recursiveResize=0;shape=mxgraph.aws4.secrets_manager;" vertex="1" parent="1">
          <mxGeometry x="1240" y="540" width="120" height="80" as="geometry" />
        </mxCell>
        
        <mxCell id="kms" value="🛡️ AWS KMS&#xa;• Data Encryption&#xa;• Key Management&#xa;• Screenshot Protection&#xa;• Compliance" style="sketch=0;points=[[0,0,0],[0.25,0,0],[0.5,0,0],[0.75,0,0],[1,0,0],[0,1,0],[0.25,1,0],[0.5,1,0],[0.75,1,0],[1,1,0]];outlineConnect=0;gradientColor=none;html=1;whiteSpace=wrap;fontSize=11;fontStyle=0;container=1;pointerEvents=0;collapsible=0;recursiveResize=0;shape=mxgraph.aws4.key_management_service;" vertex="1" parent="1">
          <mxGeometry x="1100" y="640" width="120" height="80" as="geometry" />
        </mxCell>
        
        <mxCell id="waf" value="🛡️ AWS WAF&#xa;• API Protection&#xa;• DDoS Mitigation&#xa;• Rate Limiting&#xa;• Geo Blocking" style="sketch=0;points=[[0,0,0],[0.25,0,0],[0.5,0,0],[0.75,0,0],[1,0,0],[0,1,0],[0.25,1,0],[0.5,1,0],[0.75,1,0],[1,1,0]];outlineConnect=0;gradientColor=none;html=1;whiteSpace=wrap;fontSize=11;fontStyle=0;container=1;pointerEvents=0;collapsible=0;recursiveResize=0;shape=mxgraph.aws4.waf;" vertex="1" parent="1">
          <mxGeometry x="1240" y="640" width="120" height="80" as="geometry" />
        </mxCell>
        
        <!-- Monitoring & Analytics Zone -->
        <mxCell id="monitoring-zone" value="Monitoring &amp; Analytics Services" style="rounded=1;whiteSpace=wrap;html=1;fillColor=#d5e8d4;strokeColor=#82b366;fontSize=14;fontStyle=1;verticalAlign=top;spacingTop=10;" vertex="1" parent="1">
          <mxGeometry x="620" y="760" width="400" height="200" as="geometry" />
        </mxCell>
        
        <mxCell id="cloudwatch" value="📊 CloudWatch&#xa;• Performance Metrics&#xa;• Custom Dashboards&#xa;• Alarms &amp; Alerts&#xa;• Log Aggregation" style="sketch=0;points=[[0,0,0],[0.25,0,0],[0.5,0,0],[0.75,0,0],[1,0,0],[0,1,0],[0.25,1,0],[0.5,1,0],[0.75,1,0],[1,1,0]];outlineConnect=0;gradientColor=none;html=1;whiteSpace=wrap;fontSize=11;fontStyle=0;container=1;pointerEvents=0;collapsible=0;recursiveResize=0;shape=mxgraph.aws4.cloudwatch;" vertex="1" parent="1">
          <mxGeometry x="640" y="800" width="120" height="80" as="geometry" />
        </mxCell>
        
        <mxCell id="xray" value="🔍 AWS X-Ray&#xa;• Distributed Tracing&#xa;• Performance Analysis&#xa;• Error Tracking&#xa;• Service Map" style="sketch=0;points=[[0,0,0],[0.25,0,0],[0.5,0,0],[0.75,0,0],[1,0,0],[0,1,0],[0.25,1,0],[0.5,1,0],[0.75,1,0],[1,1,0]];outlineConnect=0;gradientColor=none;html=1;whiteSpace=wrap;fontSize=11;fontStyle=0;container=1;pointerEvents=0;collapsible=0;recursiveResize=0;shape=mxgraph.aws4.x_ray;" vertex="1" parent="1">
          <mxGeometry x="780" y="800" width="120" height="80" as="geometry" />
        </mxCell>
        
        <mxCell id="cloudtrail" value="📋 CloudTrail&#xa;• API Call Logging&#xa;• Compliance Audit&#xa;• Security Analysis&#xa;• Change Tracking" style="sketch=0;points=[[0,0,0],[0.25,0,0],[0.5,0,0],[0.75,0,0],[1,0,0],[0,1,0],[0.25,1,0],[0.5,1,0],[0.75,1,0],[1,1,0]];outlineConnect=0;gradientColor=none;html=1;whiteSpace=wrap;fontSize=11;fontStyle=0;container=1;pointerEvents=0;collapsible=0;recursiveResize=0;shape=mxgraph.aws4.cloudtrail;" vertex="1" parent="1">
          <mxGeometry x="640" y="900" width="120" height="80" as="geometry" />
        </mxCell>
        
        <mxCell id="opensearch" value="🔎 OpenSearch&#xa;• Log Analytics&#xa;• Search &amp; Indexing&#xa;• Visualization&#xa;• Real-time Insights" style="sketch=0;points=[[0,0,0],[0.25,0,0],[0.5,0,0],[0.75,0,0],[1,0,0],[0,1,0],[0.25,1,0],[0.5,1,0],[0.75,1,0],[1,1,0]];outlineConnect=0;gradientColor=none;html=1;whiteSpace=wrap;fontSize=11;fontStyle=0;container=1;pointerEvents=0;collapsible=0;recursiveResize=0;shape=mxgraph.aws4.opensearch_service;" vertex="1" parent="1">
          <mxGeometry x="780" y="900" width="120" height="80" as="geometry" />
        </mxCell>
        
        <!-- DevOps & Management Zone -->
        <mxCell id="devops-zone" value="DevOps &amp; Management Services" style="rounded=1;whiteSpace=wrap;html=1;fillColor=#fff2cc;strokeColor=#d6b656;fontSize=14;fontStyle=1;verticalAlign=top;spacingTop=10;" vertex="1" parent="1">
          <mxGeometry x="1080" y="760" width="400" height="200" as="geometry" />
        </mxCell>
        
        <mxCell id="codepipeline" value="🚀 CodePipeline&#xa;• CI/CD Automation&#xa;• MCP Deployment&#xa;• Testing Pipeline&#xa;• Release Management" style="sketch=0;points=[[0,0,0],[0.25,0,0],[0.5,0,0],[0.75,0,0],[1,0,0],[0,1,0],[0.25,1,0],[0.5,1,0],[0.75,1,0],[1,1,0]];outlineConnect=0;gradientColor=none;html=1;whiteSpace=wrap;fontSize=11;fontStyle=0;container=1;pointerEvents=0;collapsible=0;recursiveResize=0;shape=mxgraph.aws4.codepipeline;" vertex="1" parent="1">
          <mxGeometry x="1100" y="800" width="120" height="80" as="geometry" />
        </mxCell>
        
        <mxCell id="cloudformation" value="📋 CloudFormation&#xa;• Infrastructure as Code&#xa;• Stack Management&#xa;• Resource Provisioning&#xa;• Template Versioning" style="sketch=0;points=[[0,0,0],[0.25,0,0],[0.5,0,0],[0.75,0,0],[1,0,0],[0,1,0],[0.25,1,0],[0.5,1,0],[0.75,1,0],[1,1,0]];outlineConnect=0;gradientColor=none;html=1;whiteSpace=wrap;fontSize=11;fontStyle=0;container=1;pointerEvents=0;collapsible=0;recursiveResize=0;shape=mxgraph.aws4.cloudformation;" vertex="1" parent="1">
          <mxGeometry x="1240" y="800" width="120" height="80" as="geometry" />
        </mxCell>
        
        <mxCell id="systems-manager" value="⚙️ Systems Manager&#xa;• Parameter Store&#xa;• Configuration Management&#xa;• Patch Management&#xa;• Automation Documents" style="sketch=0;points=[[0,0,0],[0.25,0,0],[0.5,0,0],[0.75,0,0],[1,0,0],[0,1,0],[0.25,1,0],[0.5,1,0],[0.75,1,0],[1,1,0]];outlineConnect=0;gradientColor=none;html=1;whiteSpace=wrap;fontSize=11;fontStyle=0;container=1;pointerEvents=0;collapsible=0;recursiveResize=0;shape=mxgraph.aws4.systems_manager;" vertex="1" parent="1">
          <mxGeometry x="1100" y="900" width="120" height="80" as="geometry" />
        </mxCell>
        
        <mxCell id="sns" value="📢 Amazon SNS&#xa;• Notification Service&#xa;• Multi-channel Alerts&#xa;• Topic-based Messaging&#xa;• Mobile Push" style="sketch=0;points=[[0,0,0],[0.25,0,0],[0.5,0,0],[0.75,0,0],[1,0,0],[0,1,0],[0.25,1,0],[0.5,1,0],[0.75,1,0],[1,1,0]];outlineConnect=0;gradientColor=none;html=1;whiteSpace=wrap;fontSize=11;fontStyle=0;container=1;pointerEvents=0;collapsible=0;recursiveResize=0;shape=mxgraph.aws4.sns;" vertex="1" parent="1">
          <mxGeometry x="1240" y="900" width="120" height="80" as="geometry" />
        </mxCell>
        
        <!-- Network Connections -->
        <mxCell id="client-to-gateway" style="edgeStyle=orthogonalEdgeStyle;rounded=0;orthogonalLoop=1;jettySize=auto;html=1;exitX=1;exitY=0.5;exitDx=0;exitDy=0;entryX=0;entryY=0.5;entryDx=0;entryDy=0;strokeWidth=2;strokeColor=#FF6B35;" edge="1" parent="1" source="macos-device" target="internet-gateway">
          <mxGeometry relative="1" as="geometry" />
        </mxCell>
        
        <mxCell id="gateway-to-api" style="edgeStyle=orthogonalEdgeStyle;rounded=0;orthogonalLoop=1;jettySize=auto;html=1;exitX=1;exitY=0.5;exitDx=0;exitDy=0;entryX=0;entryY=0.5;entryDx=0;entryDy=0;strokeWidth=2;strokeColor=#FF6B35;" edge="1" parent="1" source="internet-gateway" target="api-gateway">
          <mxGeometry relative="1" as="geometry" />
        </mxCell>
        
        <!-- Data Flow Labels -->
        <mxCell id="https-label" value="HTTPS/TLS 1.3&#xa;Encrypted Communication" style="text;html=1;strokeColor=none;fillColor=none;align=center;verticalAlign=middle;whiteSpace=wrap;rounded=0;fontSize=10;fontColor=#FF6B35;fontStyle=1;" vertex="1" parent="1">
          <mxGeometry x="380" y="80" width="140" height="30" as="geometry" />
        </mxCell>
        
        <!-- Cost Optimization Note -->
        <mxCell id="cost-note" value="💰 Cost Optimization&#xa;• Serverless Architecture&#xa;• Pay-per-use Model&#xa;• Auto Scaling&#xa;• Reserved Instances for RDS" style="rounded=1;whiteSpace=wrap;html=1;fillColor=#f0f0f0;strokeColor=#666666;fontSize=11;fontStyle=1;" vertex="1" parent="1">
          <mxGeometry x="40" y="1000" width="200" height="100" as="geometry" />
        </mxCell>
        
        <!-- Availability Note -->
        <mxCell id="availability-note" value="🔄 High Availability&#xa;• Multi-AZ Deployment&#xa;• Auto Failover&#xa;• Load Balancing&#xa;• 99.9% SLA Target" style="rounded=1;whiteSpace=wrap;html=1;fillColor=#f0f0f0;strokeColor=#666666;fontSize=11;fontStyle=1;" vertex="1" parent="1">
          <mxGeometry x="280" y="1000" width="200" height="100" as="geometry" />
        </mxCell>
        
        <!-- Security Note -->
        <mxCell id="security-note" value="🔒 Security Features&#xa;• End-to-end Encryption&#xa;• Zero Trust Architecture&#xa;• Compliance Ready&#xa;• Audit Logging" style="rounded=1;whiteSpace=wrap;html=1;fillColor=#f0f0f0;strokeColor=#666666;fontSize=11;fontStyle=1;" vertex="1" parent="1">
          <mxGeometry x="520" y="1000" width="200" height="100" as="geometry" />
        </mxCell>
        
      </root>
    </mxGraphModel>
  </diagram>
</mxfile>
